<?xml version="1.0" encoding="UTF-8" standalone="no"?>
<!-- Created with Inkscape (http://www.inkscape.org/) -->

<svg
   width="100"
   height="100"
   viewBox="0 0 26.458333 26.458334"
   version="1.1"
   id="svg1058"
   inkscape:version="1.1.2 (b8e25be833, 2022-02-05)"
   sodipodi:docname="github icon.svg"
   xmlns:inkscape="http://www.inkscape.org/namespaces/inkscape"
   xmlns:sodipodi="http://sodipodi.sourceforge.net/DTD/sodipodi-0.dtd"
   xmlns="http://www.w3.org/2000/svg"
   xmlns:svg="http://www.w3.org/2000/svg">
  <sodipodi:namedview
     id="namedview1060"
     pagecolor="#505050"
     bordercolor="#ffffff"
     borderopacity="1"
     inkscape:pageshadow="0"
     inkscape:pageopacity="0"
     inkscape:pagecheckerboard="1"
     inkscape:document-units="mm"
     showgrid="false"
     units="px"
     inkscape:zoom="4.0718557"
     inkscape:cx="67.659568"
     inkscape:cy="53.16986"
     inkscape:window-width="1920"
     inkscape:window-height="1001"
     inkscape:window-x="-9"
     inkscape:window-y="-9"
     inkscape:window-maximized="1"
     inkscape:current-layer="g1275" />
  <defs
     id="defs1055">
    <inkscape:path-effect
       effect="bspline"
       id="path-effect256527"
       is_visible="true"
       lpeversion="1"
       weight="33.333333"
       steps="2"
       helper_size="0"
       apply_no_weight="true"
       apply_with_weight="true"
       only_selected="false" />
  </defs>
  <g
     inkscape:label="Layer 1"
     inkscape:groupmode="layer"
     id="layer1">
    <path
       id="path2164"
       style="fill:#ffffff;fill-opacity:0.909804;stroke:#000000;stroke-width:0;stroke-miterlimit:4;stroke-dasharray:none"
       d="m 37.110562,-1.3801345 c -2.846522,0 -5.137999,2.29150086 -5.137999,5.1378994 V 19.811868 c 0,2.846374 2.291477,5.137899 5.137999,5.137899 h 16.294995 c 2.846547,0 5.137999,-2.291525 5.137999,-5.137899 V 3.7577649 c 0,-2.84639854 -2.291452,-5.1378994 -5.137999,-5.1378994 z M 38.299275,2.071207 A 2.4134955,2.4134955 0 0 1 40.712678,4.4846827 2.4134955,2.4134955 0 0 1 38.299275,6.8979863 2.4134955,2.4134955 0 0 1 35.885897,4.4846827 2.4134955,2.4134955 0 0 1 38.299275,2.071207 Z m 12.308939,6.128608 c 0.272107,1.481e-4 0.515984,0.026404 0.771434,0.064405 0.389296,0.052808 0.80529,0.1204208 1.237819,0.3113181 0.432503,0.190502 0.881712,0.501943 1.414032,1.118582 0.532295,0.6163179 1.147034,1.5376119 1.293908,2.2380759 4.9e-5,1.73e-4 -5e-5,4.94e-4 0,8.39e-4 h 0.0099 v 0.04935 c 0.03479,0.193216 0.03356,0.369801 0,0.530469 v 9.177527 H 51.182711 V 12.916066 C 50.9853,12.644453 50.82589,12.395616 50.675142,12.209507 50.49155,11.98273 50.319753,11.848861 50.078146,11.759779 c -0.241582,-0.08809 -0.553591,-0.132266 -0.850349,-0.122148 -0.296759,0.01481 -0.577675,0.06959 -0.846821,0.145837 -0.269145,0.07625 -0.526496,0.1678 -0.734641,0.339301 -0.208022,0.171254 -0.366815,0.422732 -0.489161,0.646152 -0.120174,0.219126 -0.204074,0.409159 -0.282273,0.55744 v 8.415865 H 42.722226 V 8.4549691 h 4.152645 v 1.527939 c 0.101667,-0.129058 0.207529,-0.257671 0.318202,-0.377796 0.406667,-0.441214 0.856321,-0.769139 1.375463,-0.994237 0.519143,-0.2248025 1.10733,-0.3458897 1.583214,-0.3891721 0.118941,-0.014806 0.231218,-0.014806 0.338388,-0.022209 0.04022,-0.00101 0.07946,0 0.118447,0 z M 36.28563,8.4548211 h 4.152646 V 21.742081 H 36.28563 Z" />
    <g
       id="g1275"
       transform="matrix(1.0638815,0,0,1.0638815,167.30861,-109.76238)">
      <g
         id="g1195"
         transform="translate(5.7412267,-38.783819)">
        <rect
           style="fill:none;fill-rule:evenodd;stroke:#ffffff;stroke-width:2.465;stroke-miterlimit:4;stroke-dasharray:none;stroke-opacity:1"
           id="rect67"
           width="22.352625"
           height="22.352625"
           x="-155.94855"
           y="104.48553"
           ry="5.7181163" />
        <circle
           style="fill:none;stroke:#ffffff;stroke-width:2.316;stroke-miterlimit:4;stroke-dasharray:none;stroke-opacity:1"
           id="path1170"
           cx="-144.54031"
           cy="115.95908"
           r="5.272891" />
        <circle
           style="fill:#ffffff;stroke:#ffffff;stroke-width:0.443907;stroke-miterlimit:4;stroke-dasharray:none;stroke-opacity:1"
           id="circle1252"
           cx="-138.31169"
           cy="109.20131"
           r="1.0106525" />
      </g>
      <g
         id="g256523"
         transform="matrix(1.6228639,0,0,1.6228639,-305.66739,-1609.5653)">
        <circle
           style="opacity:1;fill:none;fill-opacity:0.909804;stroke:#ffffff;stroke-width:0.687418;stroke-miterlimit:4;stroke-dasharray:none;stroke-opacity:1"
           id="circle256519"
           cx="99.161552"
           cy="1063.0569"
           r="7.2901053" />
        <path
           style="fill:#ffffff;stroke:none;stroke-width:0.264583px;stroke-linecap:butt;stroke-linejoin:miter;stroke-opacity:1"
           d="m 97.876795,1070.4279 c 0.234528,0 0.703228,-0.011 1.16473,-0.087 0.461502,-0.076 0.915809,-0.22 1.225835,-0.3209 0.31003,-0.101 0.47604,-0.1587 0.55528,-0.2631 0.0792,-0.1044 0.072,-0.2559 0.0612,-0.4578 -0.0108,-0.2019 -0.0253,-0.4543 -0.0325,-0.6598 -0.007,-0.2056 -0.007,-0.3642 -0.007,-0.5156 0,-0.1515 0,-0.2957 0,-0.4544 0,-0.1586 0,-0.3317 -0.0252,-0.4687 -0.0252,-0.137 -0.0756,-0.238 -0.11892,-0.3426 -0.0433,-0.1045 -0.0793,-0.2126 -0.0541,-0.2813 0.0252,-0.069 0.11183,-0.097 0.28128,-0.1405 0.16945,-0.043 0.42194,-0.1008 0.66711,-0.1694 0.24517,-0.069 0.48317,-0.1478 0.76074,-0.3605 0.27757,-0.2127 0.59486,-0.5589 0.80398,-0.8941 0.20912,-0.3353 0.31007,-0.6598 0.35698,-1.0095 0.0469,-0.3497 0.0397,-0.7247 0.0109,-1.0456 -0.0288,-0.3209 -0.0793,-0.5878 -0.15493,-0.7753 -0.0756,-0.1875 -0.1766,-0.2957 -0.27755,-0.4038 -0.10096,-0.1082 -0.20193,-0.2164 -0.24894,-0.2886 -0.047,-0.072 -0.0398,-0.1083 0.0106,-0.2849 0.0505,-0.1766 0.14426,-0.4941 0.23801,-0.8114 0,0 -0.10818,-0.8005 -0.10818,-0.8005 -0.2524,0.022 -0.50446,0.043 -0.72456,0.1046 -0.22009,0.061 -0.40755,0.1623 -0.60586,0.2705 -0.1983,0.1081 -0.40744,0.2235 -0.55879,0.2741 -0.15136,0.051 -0.2452,0.036 -0.51921,0.015 -0.27401,-0.022 -0.728268,-0.051 -1.236767,-0.025 -0.508499,0.025 -1.070941,0.1044 -1.39176,0.119 -0.32082,0.015 -0.400255,-0.036 -0.551697,-0.1441 -0.151442,-0.1081 -0.375011,-0.274 -0.598559,-0.3787 -0.223549,-0.1046 -0.447053,-0.1479 -0.645473,-0.1732 -0.19842,-0.025 -0.371354,-0.033 -0.458039,-0.036 -0.08668,0 -0.08668,0 -0.104734,0.1479 -0.01805,0.1517 -0.05408,0.4544 -0.0432,0.6997 0.01088,0.2452 0.06854,0.4327 0.104625,0.5663 0.03608,0.1336 0.05044,0.2125 -0.01092,0.3711 -0.06136,0.1585 -0.198379,0.3965 -0.317359,0.7499 -0.11898,0.3534 -0.219935,0.8221 -0.237921,1.2549 -0.01799,0.4327 0.04693,0.8294 0.151579,1.1431 0.104649,0.3137 0.248849,0.5444 0.421961,0.7644 0.173111,0.2199 0.375065,0.4291 0.587833,0.584 0.212767,0.155 0.436297,0.256 0.685086,0.3136 0.248789,0.057 0.522807,0.072 0.703197,0.083 0.18039,0.011 0.266733,0.018 0.302637,0.087 0.0359,0.069 0.02147,0.1986 -0.02902,0.3427 -0.05048,0.1441 -0.137036,0.3028 -0.201942,0.429 -0.06491,0.1263 -0.108162,0.22 -0.252308,0.2884 -0.144145,0.068 -0.38929,0.1117 -0.612854,0.1297 -0.223564,0.018 -0.42536,0.011 -0.616478,-0.094 -0.191119,-0.1045 -0.371455,-0.3065 -0.548136,-0.5012 -0.176681,-0.1947 -0.349756,-0.3822 -0.497655,-0.5049 -0.147898,-0.1227 -0.27026,-0.1802 -0.331724,-0.2092 -0.06146,-0.029 -0.407619,-0.029 -0.450806,-0.018 -0.04319,0.011 -0.12956,0.033 -0.147621,0.072 -0.01806,0.04 0.03237,0.098 0.14053,0.1624 0.108161,0.065 0.274169,0.1369 0.38946,0.2452 0.115291,0.1083 0.180182,0.2525 0.310032,0.4616 0.129849,0.2091 0.324543,0.4831 0.472338,0.6561 0.147794,0.173 0.248926,0.2453 0.396756,0.3137 0.147829,0.069 0.342598,0.1334 0.519246,0.1513 0.176647,0.018 0.335123,-0.011 0.504742,-0.029 0.169619,-0.018 0.349767,-0.025 0.465046,-0.01 0.115278,0.018 0.166119,0.062 0.187559,0.2562 0.02144,0.1947 0.01423,0.5408 -0.01465,0.7787 -0.02887,0.238 -0.07934,0.3678 -0.07928,0.5374 6.3e-5,0.1695 0.05054,0.3786 0.07574,0.483 0.0252,0.1044 0.0253,0.1057 0.259826,0.102 z"
           id="path256521"
           inkscape:path-effect="#path-effect256527"
           inkscape:original-d="m 97.642267,1070.4316 c 0.469014,-0.01 0.937766,-0.014 1.40625,-0.022 0.454602,-0.144 0.908918,-0.2882 1.362983,-0.4327 0.16613,-0.057 0.332,-0.1151 0.4976,-0.173 -0.007,-0.1512 -0.0142,-0.3027 -0.0217,-0.4544 -0.0142,-0.2521 -0.0286,-0.5045 -0.0433,-0.7572 2.7e-4,-0.1584 2.7e-4,-0.317 0,-0.4759 2.7e-4,-0.144 2.7e-4,-0.2882 0,-0.4327 2.7e-4,-0.1728 2.7e-4,-0.3459 0,-0.5193 -0.0502,-0.1007 -0.10069,-0.2016 -0.15144,-0.3029 -0.0358,-0.1079 -0.0718,-0.216 -0.10817,-0.3245 0.0868,-0.028 0.17334,-0.057 0.25961,-0.086 0.25267,-0.057 0.50507,-0.1151 0.75721,-0.1731 0.23825,-0.079 0.47623,-0.1584 0.71394,-0.238 0.31758,-0.3459 0.63489,-0.692 0.95193,-1.0384 0.10123,-0.3243 0.20219,-0.6488 0.30288,-0.9736 -0.007,-0.3747 -0.0142,-0.7497 -0.0216,-1.125 -0.0502,-0.2665 -0.1007,-0.5334 -0.15144,-0.8005 -0.1007,-0.1079 -0.20166,-0.2161 -0.30289,-0.3245 -0.1007,-0.1079 -0.20166,-0.2161 -0.30288,-0.3245 0.007,-0.036 0.0147,-0.072 0.0216,-0.1082 0.094,-0.317 0.28125,-0.9519 0.28125,-0.9519 l -0.10818,-0.8005 c 0,0 -0.50449,0.043 -0.75721,0.065 -0.18724,0.1013 -0.37473,0.2022 -0.56249,0.3029 -0.20888,0.1156 -0.41801,0.231 -0.62741,0.3462 -0.0935,-0.014 -0.18724,-0.029 -0.28125,-0.043 -0.45407,-0.029 -0.90839,-0.057 -1.362982,-0.087 -0.562247,0.08 -1.124735,0.159 -1.687499,0.238 -0.07906,-0.05 -0.15839,-0.1007 -0.237982,-0.1514 -0.223298,-0.1656 -0.446849,-0.3315 -0.670674,-0.4976 -0.223295,-0.043 -0.446849,-0.086 -0.670671,-0.1298 -0.172815,-0.01 -0.34589,-0.014 -0.519231,-0.022 2.65e-4,3e-4 2.65e-4,3e-4 0,0 -0.0358,0.3033 -0.07184,0.606 -0.108172,0.9087 0.05796,0.1878 0.115637,0.3752 0.173072,0.5625 0.01468,0.08 0.02911,0.1589 0.04327,0.2379 -0.136755,0.2383 -0.273772,0.4763 -0.411056,0.714 -0.100698,0.469 -0.201658,0.9377 -0.302885,1.4062 0.06517,0.3969 0.130072,0.7936 0.194712,1.1899 0.144497,0.2311 0.288724,0.4618 0.432692,0.6923 0.202192,0.2094 0.404111,0.4186 0.605769,0.6274 0.223827,0.1013 0.447381,0.2022 0.670674,0.3029 0.274306,0.015 0.548341,0.029 0.822116,0.043 0.0868,0.01 0.173339,0.015 0.259614,0.022 -0.01416,0.13 -0.02858,0.2599 -0.04327,0.3894 -0.08628,0.1589 -0.172813,0.3176 -0.259614,0.476 -0.04301,0.094 -0.08628,0.1877 -0.129808,0.2812 -0.244932,0.044 -0.490122,0.087 -0.735578,0.1298 -0.201663,-0.01 -0.40358,-0.014 -0.605769,-0.022 -0.180028,-0.2016 -0.360312,-0.4036 -0.540864,-0.6057 -0.172818,-0.1873 -0.34589,-0.3748 -0.519232,-0.5625 -0.122335,-0.058 -0.244927,-0.1151 -0.367789,-0.1731 h -0.346154 c -0.08628,0.022 -0.17281,0.043 -0.259615,0.065 0.05075,0.058 0.101227,0.1156 0.151442,0.1731 0.166135,0.072 0.331997,0.1445 0.497597,0.2163 0.06517,0.1445 0.130072,0.2887 0.194712,0.4327 0.19498,0.2743 0.389686,0.5483 0.584134,0.8221 0.10123,0.072 0.202187,0.1445 0.302884,0.2164 0.19498,0.065 0.389689,0.1301 0.584134,0.1947 0.158922,-0.029 0.317574,-0.057 0.475962,-0.087 0.180557,-0.01 0.360841,-0.014 0.540866,-0.022 0.05075,0.043 0.101227,0.087 0.151443,0.1298 -0.007,0.3464 -0.01416,0.6925 -0.02164,1.0384 -0.05022,0.1301 -0.100698,0.2599 -0.151443,0.3895 0.05075,0.2094 0.101227,0.4185 0.151443,0.6273 z"
           sodipodi:nodetypes="ccccccccccccccccccsccccccccccccccccccccccccccccccccccccccccccccccccc" />
      </g>
    </g>
  </g>
</svg>
