<?xml version="1.0" encoding="UTF-8" standalone="no"?>
<!-- Created with Inkscape (http://www.inkscape.org/) -->

<svg
   width="100"
   height="100"
   viewBox="0 0 26.458333 26.458334"
   version="1.1"
   id="svg1058"
   inkscape:version="1.1.2 (b8e25be833, 2022-02-05)"
   sodipodi:docname="linkedin icon.svg"
   xmlns:inkscape="http://www.inkscape.org/namespaces/inkscape"
   xmlns:sodipodi="http://sodipodi.sourceforge.net/DTD/sodipodi-0.dtd"
   xmlns="http://www.w3.org/2000/svg"
   xmlns:svg="http://www.w3.org/2000/svg">
  <sodipodi:namedview
     id="namedview1060"
     pagecolor="#505050"
     bordercolor="#ffffff"
     borderopacity="1"
     inkscape:pageshadow="0"
     inkscape:pageopacity="0"
     inkscape:pagecheckerboard="1"
     inkscape:document-units="mm"
     showgrid="false"
     units="px"
     inkscape:zoom="4.0718557"
     inkscape:cx="67.659568"
     inkscape:cy="67.168391"
     inkscape:window-width="1920"
     inkscape:window-height="1001"
     inkscape:window-x="-9"
     inkscape:window-y="-9"
     inkscape:window-maximized="1"
     inkscape:current-layer="layer1" />
  <defs
     id="defs1055" />
  <g
     inkscape:label="Layer 1"
     inkscape:groupmode="layer"
     id="layer1">
    <path
       id="path2164"
       style="fill:#ffffff;fill-opacity:0.909804;stroke:#000000;stroke-width:0;stroke-miterlimit:4;stroke-dasharray:none"
       d="m 5.2060882,0.11437246 c -2.8465228,0 -5.13799901,2.29150084 -5.13799901,5.13789934 V 21.306375 c 0,2.846374 2.29147621,5.137899 5.13799901,5.137899 H 21.501083 c 2.846547,0 5.137999,-2.291525 5.137999,-5.137899 V 5.2522718 c 0,-2.8463985 -2.291452,-5.13789934 -5.137999,-5.13789934 z M 6.3948012,3.5657139 A 2.4134955,2.4134955 0 0 1 8.8082036,5.9791896 2.4134955,2.4134955 0 0 1 6.3948012,8.3924932 2.4134955,2.4134955 0 0 1 3.9814226,5.9791896 2.4134955,2.4134955 0 0 1 6.3948012,3.5657139 Z M 18.70374,9.6943219 c 0.272107,1.481e-4 0.515984,0.026404 0.771434,0.064405 0.389296,0.052808 0.80529,0.1204208 1.237819,0.3113181 0.432503,0.190502 0.881712,0.501943 1.414032,1.118582 0.532295,0.616318 1.147034,1.537612 1.293908,2.238076 4.9e-5,1.73e-4 -5e-5,4.94e-4 0,8.39e-4 h 0.0099 v 0.04935 c 0.03479,0.193216 0.03356,0.369801 0,0.530469 v 9.177527 h -4.152596 v -8.774315 c -0.197411,-0.271613 -0.356821,-0.52045 -0.507569,-0.706559 -0.183592,-0.226777 -0.355389,-0.360646 -0.596996,-0.449728 -0.241582,-0.08809 -0.553591,-0.132266 -0.850349,-0.122148 -0.296759,0.01481 -0.577675,0.06959 -0.846821,0.145837 -0.269145,0.07625 -0.526496,0.1678 -0.734641,0.339301 -0.208022,0.171254 -0.366815,0.422732 -0.489161,0.646152 -0.120174,0.219126 -0.204074,0.409159 -0.282273,0.55744 v 8.415865 H 10.817752 V 9.949476 h 4.152645 v 1.527939 c 0.101667,-0.129058 0.207529,-0.257671 0.318202,-0.377796 0.406667,-0.441214 0.856321,-0.769139 1.375463,-0.994237 0.519143,-0.2248025 1.10733,-0.3458897 1.583214,-0.3891721 0.118941,-0.014806 0.231218,-0.014806 0.338388,-0.022209 0.04022,-0.00101 0.07946,0 0.118447,0 z M 4.3811558,9.949328 h 4.1526461 v 13.28726 H 4.3811558 Z" />
  </g>
</svg>
